<?xml version="1.0" encoding="UTF-8"?>
<svg xmlns="http://www.w3.org/2000/svg" viewBox="0 0 747.41 166.69" style="width:82%;height:auto;display:block;" aria-label="Inman Connect San Diego">
  <!-- CONNECT -->
  <path fill="#0A80FF" d="M385.69,41.13v2.2h-12.87v-1.69c0-5.25-4.15-9.48-11.09-9.48-9.15,0-13.63,6.52-13.63,15.07v7.03c0,8.3,4.49,15.16,13.63,15.16,6.94,0,11.09-4.23,11.09-9.48v-1.69h12.87v2.2c0,11.01-7.96,19.82-24.05,19.82s-26.59-10.76-26.59-26.17v-6.61c0-15.41,9.99-26.17,26.76-26.17s23.88,8.64,23.88,19.82Z"/>
  <path fill="#0A80FF" d="M447.85,47.99v5.59c0,17.7-10.33,26.68-26.93,26.68s-27.02-8.98-27.02-26.68v-5.59c0-17.7,10.42-26.68,27.02-26.68s26.93,8.98,26.93,26.68ZM406.95,47.66v6.27c0,10.84,5,15.41,13.97,15.41s13.89-4.57,13.89-15.41v-6.27c0-10.84-5-15.41-13.89-15.41s-13.97,4.57-13.97,15.41Z"/>
  <path fill="#0A80FF" d="M472.08,22.59l25.49,36.25h.17l-.08-36.25h11.77v56.4h-12.7l-25.74-36.84h-.17l.08,36.84h-11.77V22.59h12.96Z"/>
  <path fill="#0A80FF" d="M535.94,22.59l25.49,36.25h.17l-.08-36.25h11.77v56.4h-12.7l-25.74-36.84h-.17l.08,36.84h-11.77V22.59h12.96Z"/>
  <path fill="#0A80FF" d="M630.7,22.59v10.75h-31.16v12.03h24.05v9.99h-24.05v12.87h31.16v10.76h-43.87V22.59h43.87Z"/>
  <path fill="#0A80FF" d="M688.8,41.13v2.2h-12.87v-1.69c0-5.25-4.15-9.48-11.09-9.48-9.15,0-13.63,6.52-13.63,15.07v7.03c0,8.3,4.49,15.16,13.63,15.16,6.94,0,11.09-4.23,11.09-9.48v-1.69h12.87v2.2c0,11.01-7.96,19.82-24.05,19.82s-26.59-10.76-26.59-26.17v-6.61c0-15.41,9.99-26.17,26.76-26.17s23.88,8.64,23.88,19.82Z"/>
  <path fill="#0A80FF" d="M744.53,22.59v11.09h-18.63v45.31h-12.87v-45.31h-18.72v-11.09h50.22Z"/>
  <!-- INMAN -->
  <path fill="#17184B" d="M27.75,78.39v.6c-3.48-.24-8.53-.24-13.69-.24s-10.09,0-14.05.24v-.6c5.04-2.04,5.89-4.44,5.89-18.14v-19.94c0-12.49-.84-14.41-5.89-17.54v-.6c8.41,0,14.17-.12,22.22-.36v38.56c0,13.57.72,15.98,5.53,18.02Z"/>
  <path fill="#17184B" d="M95.01,78.99c-3.96-.24-8.29-.24-13.57-.24s-9.85,0-13.45.24v-.6c4.44-2.04,5.29-4.44,5.29-17.3v-19.58c0-6.85-3.36-10.09-8.77-10.09-4.92,0-10.21,3.36-10.21,10.21v19.58c0,12.73.72,15.13,5.28,17.18v.6c-3.6-.24-8.17-.24-13.45-.24s-9.85,0-13.81.24v-.6c4.8-2.04,5.65-4.44,5.65-17.3v-20.78c0-12.49-.84-14.41-5.65-17.54v-.6c8.41,0,14.05-.12,21.98-.36v11.65c3.24-7.21,10.09-12.85,18.74-12.85,11.53,0,16.58,7.57,16.58,18.26v22.22c0,12.85.84,15.26,5.41,17.3v.6Z"/>
  <path fill="#17184B" d="M195.42,78.99c-3.84-.24-8.29-.24-13.57-.24s-9.85,0-13.33.24v-.6c4.44-2.04,5.17-4.44,5.17-17.3v-19.58c0-6.85-3.24-10.09-8.41-10.09-4.68,0-9.73,3.36-9.73,10.21v19.46c0,12.85.84,15.26,5.65,17.3v.6c-3.84-.24-8.53-.24-13.81-.24s-9.85,0-13.45.24v-.6c4.56-2.04,5.28-4.44,5.28-17.3v-19.58c0-6.85-3.24-10.09-8.41-10.09-4.68,0-9.73,3.36-9.73,10.21v19.58c0,12.73.72,15.13,5.28,17.18v.6c-3.48-.24-8.17-.24-13.45-.24s-9.97,0-13.81.24v-.6c4.8-2.04,5.65-4.44,5.65-17.3v-20.78c0-12.49-.84-14.41-5.65-17.54v-.6c8.29,0,14.17-.12,21.98-.36v11.53c3.24-7.21,9.97-12.73,18.26-12.73,9.49,0,14.53,5.41,15.86,13.45,3-7.57,9.97-13.45,18.62-13.45,11.29,0,16.22,7.57,16.22,18.26v22.22c0,12.85.96,15.26,5.41,17.3v.6Z"/>
  <path fill="#17184B" d="M231.09,72.98c-6.01,5.28-10.45,7.33-16.7,7.33-8.65,0-14.17-5.77-14.17-14.77,0-11.29,8.41-17.06,30.87-18.74v-7.45c0-6.85-3.12-9.25-8.29-9.25s-10.21,3-16.7,10.45l-.48-.12c-.12-4.92-.48-9.13-1.08-13.45,6.25-3.48,14.89-6.37,22.94-6.37,12.25,0,19.58,5.89,19.58,19.7v20.9c0,12.85.84,15.25,5.41,17.06v.6c-8.29,0-13.45.12-21.38.36v-6.25ZM223.16,72.38c2.28,0,4.68-.84,7.93-2.64v-16.1c-12.61,1.2-15.26,5.17-15.26,10.57s2.64,8.17,7.33,8.17Z"/>
  <path fill="#17184B" d="M319.01,78.99c-3.96-.24-8.29-.24-13.57-.24s-9.85,0-13.45.24v-.6c4.44-2.04,5.29-4.44,5.29-17.3v-19.58c0-6.85-3.36-10.09-8.77-10.09-4.92,0-10.21,3.36-10.21,10.21v19.58c0,12.73.72,15.13,5.28,17.18v.6c-3.6-.24-8.17-.24-13.45-.24s-9.85,0-13.81.24v-.6c4.8-2.04,5.65-4.44,5.65-17.3v-20.78c0-12.49-.84-14.41-5.65-17.54v-.6c8.41,0,14.05-.12,21.98-.36v11.65c3.24-7.21,10.09-12.85,18.74-12.85,11.53,0,16.58,7.57,16.58,18.26v22.22c0,12.85.84,15.26,5.41,17.3v.6Z"/>
  <circle fill="#0A80FF" cx="13.5" cy="7.98" r="7.98"></circle>
  <!-- San Diego -->
  <path fill="#17184B" d="M259.12,113.35v1.45h-4.68v-1.25c0-4.81-2.83-9.29-11.66-9.29-6.85,0-11.2,3.36-11.2,8.17s3.36,6.39,12.38,8.63c10.67,2.5,15.61,5.07,15.61,12.58s-6.59,12.38-16.13,12.38c-12.05,0-17.32-5.73-17.32-13.3v-1.71h4.68v1.38c0,5.8,3.75,9.81,12.78,9.81,6.72,0,11.33-2.9,11.33-8.23s-3.29-6.92-12.71-9.15c-10.14-2.31-15.28-4.74-15.28-12.12s6.26-12.25,16-12.25c11.66,0,16.2,6.06,16.2,12.91Z"/>
  <path fill="#17184B" d="M296.86,133.5h-21.6l-4.61,11.66h-4.74l17.91-44.32h4.74l17.85,44.32h-4.87l-4.68-11.66ZM276.77,129.75h18.64l-9.29-23.25h-.13l-9.22,23.25Z"/>
  <path fill="#17184B" d="M320.43,101.3l25.88,36.02h.13v-36.02h4.35v43.86h-4.21l-26.15-36.35h-.13v36.35h-4.28v-43.86h4.41Z"/>
  <path fill="#17184B" d="M395.11,101.3c12.91,0,19.36,8.23,19.36,19.76v4.48c0,11.52-6.65,19.63-19.36,19.63h-15.67v-43.86h15.67ZM384.04,141.28h10.87c10.14,0,14.95-6.39,14.95-15.61v-4.87c0-9.22-4.87-15.61-15.02-15.61h-10.8v36.09Z"/>
  <path fill="#17184B" d="M430.99,101.3v43.86h-4.61v-43.86h4.61Z"/>
  <path fill="#17184B" d="M475.45,101.3v3.89h-25.82v15.87h20.55v3.82h-20.55v16.4h25.88v3.89h-30.43v-43.86h30.36Z"/>
  <path fill="#17184B" d="M519.37,114.67v.92h-4.54v-.66c0-5.2-3.69-10.8-12.51-10.8-9.35,0-14.49,6.78-14.49,15.87l-.07,6.32c0,9.75,5.47,16,14.09,16s13.24-5.47,13.24-12.58v-2.63h-12.71v-3.75h17.19v21.8h-2.7l-.79-7.51c-2.5,4.81-7.11,8.43-14.88,8.43-11,0-18.04-7.84-18.04-20.09v-5.53c0-11.52,7.05-20.15,19.23-20.15s16.99,7.31,16.99,14.36Z"/>
  <path fill="#17184B" d="M568.56,120.66v5.14c0,12.38-7.24,20.35-19.3,20.35s-19.3-7.97-19.3-20.35v-5.14c0-12.38,7.31-20.35,19.3-20.35s19.3,7.97,19.3,20.35ZM534.64,120.2v6.06c0,9.62,5.6,16,14.62,16s14.69-6.39,14.69-16v-6.06c0-9.61-5.6-16-14.69-16s-14.62,6.39-14.62,16Z"/>
  <!-- small inman -->
  <path fill="#17184B" d="M208.98,137.71c-1.58-.1-3.31-.1-5.42-.1s-3.93,0-5.37.1v-.24c1.78-.82,2.11-1.78,2.11-6.91v-7.82c0-2.74-1.34-4.03-3.5-4.03-1.97,0-4.08,1.34-4.08,4.08v7.82c0,5.09.29,6.05,2.11,6.86v.24c-1.44-.1-3.26-.1-5.37-.1s-3.93,0-5.52.1v-.24c1.92-.82,2.26-1.78,2.26-6.91v-8.3c0-4.99-.34-5.76-2.26-7.01v-.24c3.36,0,5.61-.05,8.78-.14v4.65c1.3-2.88,4.03-5.13,7.49-5.13,4.61,0,6.62,3.02,6.62,7.29v8.88c0,5.13.34,6.09,2.16,6.91v.24Z"/>
  <path fill="#17184B" d="M182.11,137.47v.24c-1.39-.1-3.41-.1-5.47-.1s-4.03,0-5.61.1v-.24c2.02-.82,2.35-1.78,2.35-7.25v-7.97c0-4.99-.34-5.76-2.35-7.01v-.24c3.36,0,5.66-.05,8.88-.14v15.4c0,5.42.29,6.38,2.21,7.2Z"/>
  <circle fill="#0A80FF" cx="176.42" cy="109.34" r="3.19"></circle>
</svg>